<svg xmlns="http://www.w3.org/2000/svg" xmlns:xlink="http://www.w3.org/1999/xlink" width="500" zoomAndPan="magnify" viewBox="0 0 375 374.999991" height="500" preserveAspectRatio="xMidYMid meet" version="1.0"><defs><g/></defs><g fill="#a8a29c" fill-opacity="1"><g transform="translate(207.183272, 291.091481)"><g><path d="M 73.5625 -69.671875 L 73.5625 -28.265625 C 73.5625 -21.441406 74.253906 -16.484375 75.640625 -13.390625 C 77.023438 -10.304688 79.539062 -8.238281 83.1875 -7.1875 C 86.84375 -6.132812 92.648438 -5.609375 100.609375 -5.609375 L 100.609375 0 C 78.679688 -0.488281 61.953125 -0.734375 50.421875 -0.734375 C 42.796875 -0.734375 32.160156 -0.570312 18.515625 -0.25 L 6.828125 0 L 6.828125 -4.875 C 12.015625 -5.195312 15.785156 -5.84375 18.140625 -6.8125 C 20.503906 -7.789062 22.09375 -9.660156 22.90625 -12.421875 C 23.71875 -15.179688 24.125 -19.648438 24.125 -25.828125 L 24.125 -146.65625 C 24.125 -152.820312 23.675781 -157.285156 22.78125 -160.046875 C 21.882812 -162.804688 20.296875 -164.671875 18.015625 -165.640625 C 15.742188 -166.617188 12.015625 -167.273438 6.828125 -167.609375 L 6.828125 -172.46875 C 16.078125 -171.988281 30.039062 -171.75 48.71875 -171.75 L 76.734375 -171.984375 C 79.984375 -172.148438 83.71875 -172.234375 87.9375 -172.234375 C 111.976562 -172.234375 130.207031 -167.890625 142.625 -159.203125 C 155.050781 -150.515625 161.265625 -138.859375 161.265625 -124.234375 C 161.265625 -115.304688 158.828125 -106.738281 153.953125 -98.53125 C 149.085938 -90.332031 140.804688 -83.472656 129.109375 -77.953125 C 117.421875 -72.429688 101.910156 -69.671875 82.578125 -69.671875 Z M 86.71875 -167.609375 C 82.988281 -167.609375 80.1875 -167.035156 78.3125 -165.890625 C 76.445312 -164.753906 75.1875 -162.722656 74.53125 -159.796875 C 73.882812 -156.878906 73.5625 -152.5 73.5625 -146.65625 L 73.5625 -74.546875 L 80.140625 -74.546875 C 91.515625 -74.546875 99.351562 -78.765625 103.65625 -87.203125 C 107.957031 -95.648438 110.109375 -107.101562 110.109375 -121.5625 C 110.109375 -137.3125 108.320312 -148.921875 104.75 -156.390625 C 101.175781 -163.867188 95.164062 -167.609375 86.71875 -167.609375 Z M 86.71875 -167.609375 "/></g></g></g><g fill="#846d62" fill-opacity="1"><g transform="translate(11.073326, 290.793453)"><g><path d="M 227.15625 -170.1875 C 234.726562 -170.1875 240.925781 -170.429688 245.75 -170.921875 L 245.75 -166.09375 C 236.257812 -161.425781 228.773438 -150.160156 223.296875 -132.296875 L 182.75 0 C 177.59375 -0.320312 173.328125 -0.484375 169.953125 -0.484375 C 166.734375 -0.484375 162.546875 -0.320312 157.390625 0 L 126.015625 -95.84375 L 91.96875 0 C 86.820312 -0.320312 82.5625 -0.484375 79.1875 -0.484375 C 75.96875 -0.484375 71.78125 -0.320312 66.625 0 L 10.625 -150.640625 C 8.6875 -155.785156 6.429688 -159.601562 3.859375 -162.09375 C 1.285156 -164.59375 -1.207031 -165.925781 -3.625 -166.09375 L -3.625 -170.921875 C 7.96875 -170.429688 22.210938 -170.1875 39.109375 -170.1875 C 53.753906 -170.1875 64.457031 -170.429688 71.21875 -170.921875 L 71.21875 -166.09375 C 66.875 -165.28125 64.703125 -162.0625 64.703125 -156.4375 C 64.703125 -153.050781 65.425781 -149.507812 66.875 -145.8125 L 101.875 -47.3125 L 123.109375 -104.765625 L 106.703125 -154.734375 C 105.410156 -158.765625 103.796875 -161.582031 101.859375 -163.1875 C 99.929688 -164.800781 97.441406 -165.769531 94.390625 -166.09375 L 94.390625 -170.921875 C 105.171875 -170.429688 119.09375 -170.1875 136.15625 -170.1875 C 152.894531 -170.1875 165.367188 -170.429688 173.578125 -170.921875 L 173.578125 -166.09375 C 167.773438 -165.925781 163.585938 -165.195312 161.015625 -163.90625 C 158.441406 -162.625 157.15625 -160.289062 157.15625 -156.90625 C 157.15625 -153.851562 157.957031 -150.15625 159.5625 -145.8125 L 191.4375 -49 L 210.015625 -108.625 C 214.367188 -122.957031 216.546875 -134.222656 216.546875 -142.421875 C 216.546875 -150.472656 214.734375 -156.347656 211.109375 -160.046875 C 207.484375 -163.753906 202.289062 -165.769531 195.53125 -166.09375 L 195.53125 -170.921875 C 207.601562 -170.429688 218.144531 -170.1875 227.15625 -170.1875 Z M 227.15625 -170.1875 "/></g></g></g><path stroke-linecap="butt" transform="matrix(1.061193, 0, 0, 1.064846, 165.173826, 167.357552)" fill="none" stroke-linejoin="miter" d="M -0.00183817 2.000973 L 59.218077 2.000973 " stroke="#846d62" stroke-width="4" stroke-opacity="1" stroke-miterlimit="4"/><g fill="#a8a29c" fill-opacity="1"><g transform="translate(282.16847, 278.477461)"><g><path d="M 22.5625 -53.9375 C 25.394531 -53.9375 27.695312 -53.671875 29.46875 -53.140625 C 31.238281 -52.617188 32.96875 -51.890625 34.65625 -50.953125 C 35.207031 -50.648438 35.691406 -50.398438 36.109375 -50.203125 C 36.535156 -50.003906 36.898438 -49.90625 37.203125 -49.90625 C 37.648438 -49.90625 38 -50.164062 38.25 -50.6875 C 38.5 -51.207031 38.695312 -52.039062 38.84375 -53.1875 L 40.5625 -53.1875 C 40.3125 -49.601562 40.1875 -43.53125 40.1875 -34.96875 L 38.46875 -34.96875 C 38.269531 -37.800781 37.625 -40.507812 36.53125 -43.09375 C 35.4375 -45.6875 33.941406 -47.804688 32.046875 -49.453125 C 30.148438 -51.097656 27.957031 -51.921875 25.46875 -51.921875 C 23.175781 -51.921875 21.332031 -51.3125 19.9375 -50.09375 C 18.550781 -48.875 17.859375 -47.164062 17.859375 -44.96875 C 17.859375 -43.28125 18.226562 -41.8125 18.96875 -40.5625 C 19.71875 -39.320312 20.8125 -38.113281 22.25 -36.9375 C 23.695312 -35.769531 26.066406 -34.039062 29.359375 -31.75 C 29.660156 -31.601562 29.945312 -31.425781 30.21875 -31.21875 C 30.488281 -31.019531 30.75 -30.820312 31 -30.625 C 33.738281 -28.738281 35.929688 -27.054688 37.578125 -25.578125 C 39.222656 -24.109375 40.554688 -22.40625 41.578125 -20.46875 C 42.597656 -18.53125 43.109375 -16.289062 43.109375 -13.75 C 43.109375 -10.507812 42.195312 -7.78125 40.375 -5.5625 C 38.5625 -3.34375 36.109375 -1.6875 33.015625 -0.59375 C 29.929688 0.5 26.519531 1.046875 22.78125 1.046875 C 19.75 1.046875 17.222656 0.796875 15.203125 0.296875 C 13.179688 -0.203125 11.300781 -0.875 9.5625 -1.71875 C 8.46875 -2.414062 7.617188 -2.765625 7.015625 -2.765625 C 6.566406 -2.765625 6.21875 -2.5 5.96875 -1.96875 C 5.726562 -1.445312 5.53125 -0.617188 5.375 0.515625 L 3.65625 0.515625 C 3.851562 -2.867188 3.953125 -10.085938 3.953125 -21.140625 L 5.671875 -21.140625 C 6.023438 -15.210938 7.269531 -10.40625 9.40625 -6.71875 C 11.550781 -3.03125 14.835938 -1.1875 19.265625 -1.1875 C 22.003906 -1.1875 24.179688 -1.832031 25.796875 -3.125 C 27.421875 -4.425781 28.234375 -6.222656 28.234375 -8.515625 C 28.234375 -11.359375 27.347656 -13.785156 25.578125 -15.796875 C 23.816406 -17.816406 21.066406 -20.070312 17.328125 -22.5625 C 14.335938 -24.550781 11.945312 -26.289062 10.15625 -27.78125 C 8.363281 -29.28125 6.894531 -31.015625 5.75 -32.984375 C 4.601562 -34.953125 4.03125 -37.226562 4.03125 -39.8125 C 4.03125 -42.945312 4.875 -45.570312 6.5625 -47.6875 C 8.257812 -49.8125 10.515625 -51.382812 13.328125 -52.40625 C 16.148438 -53.425781 19.226562 -53.9375 22.5625 -53.9375 Z M 22.5625 -53.9375 "/></g></g></g><g fill="#846d62" fill-opacity="1"><g transform="translate(12.579217, 118.488439)"><g><path d="M 5.515625 -7.3125 L 5.515625 -2.703125 C 5.515625 -2.054688 5.582031 -1.585938 5.71875 -1.296875 C 5.863281 -1.015625 6.101562 -0.820312 6.4375 -0.71875 C 6.78125 -0.613281 7.335938 -0.546875 8.109375 -0.515625 L 8.109375 0 C 7.222656 -0.0507812 5.96875 -0.078125 4.34375 -0.078125 C 2.875 -0.078125 1.785156 -0.0507812 1.078125 0 L 1.078125 -0.515625 C 1.691406 -0.546875 2.140625 -0.613281 2.421875 -0.71875 C 2.703125 -0.820312 2.890625 -1.015625 2.984375 -1.296875 C 3.085938 -1.585938 3.140625 -2.054688 3.140625 -2.703125 L 3.140625 -15.390625 C 3.140625 -16.035156 3.085938 -16.503906 2.984375 -16.796875 C 2.890625 -17.085938 2.703125 -17.28125 2.421875 -17.375 C 2.140625 -17.476562 1.691406 -17.550781 1.078125 -17.59375 L 1.078125 -18.09375 C 1.785156 -18.039062 2.820312 -18.015625 4.1875 -18.015625 L 6.953125 -18.046875 C 7.273438 -18.066406 7.640625 -18.078125 8.046875 -18.078125 C 10.046875 -18.078125 11.570312 -17.617188 12.625 -16.703125 C 13.6875 -15.796875 14.21875 -14.570312 14.21875 -13.03125 C 14.21875 -12.09375 14.003906 -11.191406 13.578125 -10.328125 C 13.160156 -9.472656 12.453125 -8.753906 11.453125 -8.171875 C 10.460938 -7.597656 9.140625 -7.3125 7.484375 -7.3125 Z M 7.40625 -17.59375 C 6.882812 -17.59375 6.488281 -17.53125 6.21875 -17.40625 C 5.957031 -17.289062 5.773438 -17.078125 5.671875 -16.765625 C 5.566406 -16.460938 5.515625 -16.003906 5.515625 -15.390625 L 5.515625 -7.828125 L 7.234375 -7.828125 C 8.898438 -7.828125 10.050781 -8.269531 10.6875 -9.15625 C 11.332031 -10.050781 11.65625 -11.25 11.65625 -12.75 C 11.65625 -14.40625 11.328125 -15.625 10.671875 -16.40625 C 10.015625 -17.195312 8.925781 -17.59375 7.40625 -17.59375 Z M 7.40625 -17.59375 "/></g></g></g><g fill="#846d62" fill-opacity="1"><g transform="translate(28.551872, 118.488439)"><g><path d="M 14.15625 -3.265625 C 14.15625 -2.296875 14.21875 -1.207031 14.34375 0 C 13.1875 -0.0507812 11.234375 -0.078125 8.484375 -0.078125 C 5.210938 -0.078125 2.742188 -0.0507812 1.078125 0 L 1.078125 -0.515625 C 1.691406 -0.546875 2.140625 -0.613281 2.421875 -0.71875 C 2.703125 -0.820312 2.890625 -1.015625 2.984375 -1.296875 C 3.085938 -1.585938 3.140625 -2.054688 3.140625 -2.703125 L 3.140625 -15.390625 C 3.140625 -16.035156 3.085938 -16.503906 2.984375 -16.796875 C 2.890625 -17.085938 2.703125 -17.28125 2.421875 -17.375 C 2.140625 -17.476562 1.691406 -17.550781 1.078125 -17.59375 L 1.078125 -18.09375 C 2.742188 -18.039062 5.210938 -18.015625 8.484375 -18.015625 C 10.992188 -18.015625 12.773438 -18.039062 13.828125 -18.09375 C 13.710938 -16.96875 13.65625 -15.960938 13.65625 -15.078125 C 13.65625 -14.410156 13.679688 -13.882812 13.734375 -13.5 L 13.140625 -13.5 C 13.015625 -14.601562 12.859375 -15.421875 12.671875 -15.953125 C 12.484375 -16.492188 12.164062 -16.890625 11.71875 -17.140625 C 11.28125 -17.390625 10.613281 -17.515625 9.71875 -17.515625 L 7.59375 -17.515625 C 6.976562 -17.515625 6.53125 -17.46875 6.25 -17.375 C 5.96875 -17.28125 5.773438 -17.085938 5.671875 -16.796875 C 5.566406 -16.503906 5.515625 -16.035156 5.515625 -15.390625 L 5.515625 -9.359375 L 7.203125 -9.359375 C 7.804688 -9.359375 8.269531 -9.5 8.59375 -9.78125 C 8.914062 -10.0625 9.128906 -10.390625 9.234375 -10.765625 C 9.347656 -11.148438 9.441406 -11.632812 9.515625 -12.21875 L 9.59375 -12.734375 L 10.171875 -12.734375 C 10.117188 -12.015625 10.09375 -11.210938 10.09375 -10.328125 L 10.09375 -9.09375 C 10.09375 -8.226562 10.144531 -7.019531 10.25 -5.46875 L 9.65625 -5.46875 C 9.644531 -5.59375 9.59375 -6.003906 9.5 -6.703125 C 9.414062 -7.410156 9.179688 -7.941406 8.796875 -8.296875 C 8.421875 -8.660156 7.890625 -8.84375 7.203125 -8.84375 L 5.515625 -8.84375 L 5.515625 -2.703125 C 5.515625 -2.054688 5.566406 -1.585938 5.671875 -1.296875 C 5.773438 -1.015625 5.96875 -0.828125 6.25 -0.734375 C 6.53125 -0.640625 6.976562 -0.59375 7.59375 -0.59375 L 9.453125 -0.59375 C 10.515625 -0.59375 11.320312 -0.734375 11.875 -1.015625 C 12.425781 -1.296875 12.828125 -1.742188 13.078125 -2.359375 C 13.335938 -2.984375 13.53125 -3.898438 13.65625 -5.109375 L 14.234375 -5.109375 C 14.179688 -4.648438 14.15625 -4.035156 14.15625 -3.265625 Z M 14.15625 -3.265625 "/></g></g></g><g fill="#846d62" fill-opacity="1"><g transform="translate(45.137868, 118.488439)"><g><path d="M 16.875 -1.28125 C 16.476562 -0.695312 16.082031 -0.273438 15.6875 -0.015625 C 15.300781 0.234375 14.785156 0.359375 14.140625 0.359375 C 13.441406 0.359375 12.863281 0.15625 12.40625 -0.25 C 11.957031 -0.664062 11.625 -1.382812 11.40625 -2.40625 L 10.84375 -4.953125 C 10.632812 -5.835938 10.441406 -6.519531 10.265625 -7 C 10.085938 -7.476562 9.816406 -7.863281 9.453125 -8.15625 C 9.097656 -8.445312 8.597656 -8.59375 7.953125 -8.59375 L 5.515625 -8.59375 L 5.515625 -2.703125 C 5.515625 -2.054688 5.566406 -1.585938 5.671875 -1.296875 C 5.773438 -1.015625 5.96875 -0.820312 6.25 -0.71875 C 6.53125 -0.613281 6.976562 -0.546875 7.59375 -0.515625 L 7.59375 0 C 6.8125 -0.0507812 5.726562 -0.078125 4.34375 -0.078125 C 2.875 -0.078125 1.785156 -0.0507812 1.078125 0 L 1.078125 -0.515625 C 1.691406 -0.546875 2.140625 -0.613281 2.421875 -0.71875 C 2.703125 -0.820312 2.890625 -1.015625 2.984375 -1.296875 C 3.085938 -1.585938 3.140625 -2.054688 3.140625 -2.703125 L 3.140625 -15.390625 C 3.140625 -16.035156 3.085938 -16.503906 2.984375 -16.796875 C 2.890625 -17.085938 2.703125 -17.28125 2.421875 -17.375 C 2.140625 -17.476562 1.691406 -17.550781 1.078125 -17.59375 L 1.078125 -18.09375 C 1.785156 -18.039062 2.820312 -18.015625 4.1875 -18.015625 L 6.953125 -18.046875 C 7.273438 -18.066406 7.640625 -18.078125 8.046875 -18.078125 C 10.023438 -18.078125 11.546875 -17.660156 12.609375 -16.828125 C 13.679688 -16.003906 14.21875 -14.9375 14.21875 -13.625 C 14.21875 -12.957031 14.054688 -12.285156 13.734375 -11.609375 C 13.421875 -10.941406 12.894531 -10.335938 12.15625 -9.796875 C 11.414062 -9.265625 10.445312 -8.90625 9.25 -8.71875 L 9.5625 -8.671875 C 10.6875 -8.484375 11.503906 -8.140625 12.015625 -7.640625 C 12.523438 -7.148438 12.898438 -6.367188 13.140625 -5.296875 L 13.78125 -2.6875 C 13.945312 -1.90625 14.125 -1.359375 14.3125 -1.046875 C 14.5 -0.742188 14.753906 -0.59375 15.078125 -0.59375 C 15.367188 -0.59375 15.613281 -0.664062 15.8125 -0.8125 C 16.007812 -0.96875 16.234375 -1.21875 16.484375 -1.5625 Z M 7.40625 -17.59375 C 6.882812 -17.59375 6.488281 -17.53125 6.21875 -17.40625 C 5.957031 -17.289062 5.773438 -17.078125 5.671875 -16.765625 C 5.566406 -16.460938 5.515625 -16.003906 5.515625 -15.390625 L 5.515625 -9.09375 L 7.234375 -9.09375 C 8.921875 -9.09375 10.078125 -9.46875 10.703125 -10.21875 C 11.335938 -10.96875 11.65625 -12.007812 11.65625 -13.34375 C 11.65625 -14.738281 11.320312 -15.796875 10.65625 -16.515625 C 9.988281 -17.234375 8.90625 -17.59375 7.40625 -17.59375 Z M 7.40625 -17.59375 "/></g></g></g><g fill="#846d62" fill-opacity="1"><g transform="translate(62.720561, 118.488439)"><g><path d="M 15.140625 -18.09375 C 15.015625 -16.882812 14.953125 -15.796875 14.953125 -14.828125 C 14.953125 -13.972656 14.976562 -13.273438 15.03125 -12.734375 L 14.4375 -12.734375 C 14.300781 -14.046875 14.128906 -15.019531 13.921875 -15.65625 C 13.722656 -16.289062 13.367188 -16.757812 12.859375 -17.0625 C 12.347656 -17.363281 11.5625 -17.515625 10.5 -17.515625 L 9.125 -17.515625 L 9.125 -2.96875 C 9.125 -2.25 9.191406 -1.726562 9.328125 -1.40625 C 9.460938 -1.082031 9.703125 -0.859375 10.046875 -0.734375 C 10.390625 -0.617188 10.941406 -0.546875 11.703125 -0.515625 L 11.703125 0 C 10.816406 -0.0507812 9.566406 -0.078125 7.953125 -0.078125 C 6.242188 -0.078125 4.984375 -0.0507812 4.171875 0 L 4.171875 -0.515625 C 4.929688 -0.546875 5.484375 -0.617188 5.828125 -0.734375 C 6.171875 -0.859375 6.410156 -1.082031 6.546875 -1.40625 C 6.679688 -1.726562 6.75 -2.25 6.75 -2.96875 L 6.75 -17.515625 L 5.375 -17.515625 C 4.3125 -17.515625 3.523438 -17.363281 3.015625 -17.0625 C 2.503906 -16.757812 2.144531 -16.289062 1.9375 -15.65625 C 1.738281 -15.019531 1.570312 -14.046875 1.4375 -12.734375 L 0.84375 -12.734375 C 0.894531 -13.273438 0.921875 -13.972656 0.921875 -14.828125 C 0.921875 -15.796875 0.859375 -16.882812 0.734375 -18.09375 C 2.148438 -18.039062 4.554688 -18.015625 7.953125 -18.015625 C 11.328125 -18.015625 13.722656 -18.039062 15.140625 -18.09375 Z M 15.140625 -18.09375 "/></g></g></g><g fill="#846d62" fill-opacity="1"><g transform="translate(106.18685, 118.488439)"><g><path d="M 9.484375 -18.453125 C 10.503906 -18.453125 11.375 -18.304688 12.09375 -18.015625 C 12.8125 -17.734375 13.507812 -17.328125 14.1875 -16.796875 C 14.375 -16.640625 14.535156 -16.5625 14.671875 -16.5625 C 15.015625 -16.5625 15.238281 -17.070312 15.34375 -18.09375 L 15.921875 -18.09375 C 15.859375 -16.988281 15.828125 -15.03125 15.828125 -12.21875 L 15.234375 -12.21875 C 15.046875 -13.320312 14.875 -14.117188 14.71875 -14.609375 C 14.570312 -15.097656 14.316406 -15.5625 13.953125 -16 C 13.441406 -16.664062 12.789062 -17.164062 12 -17.5 C 11.207031 -17.832031 10.351562 -18 9.4375 -18 C 8.320312 -18 7.351562 -17.628906 6.53125 -16.890625 C 5.707031 -16.160156 5.0625 -15.117188 4.59375 -13.765625 C 4.132812 -12.410156 3.90625 -10.820312 3.90625 -9 C 3.90625 -7.144531 4.148438 -5.550781 4.640625 -4.21875 C 5.140625 -2.882812 5.828125 -1.875 6.703125 -1.1875 C 7.585938 -0.5 8.582031 -0.15625 9.6875 -0.15625 C 10.539062 -0.15625 11.367188 -0.316406 12.171875 -0.640625 C 12.972656 -0.960938 13.601562 -1.445312 14.0625 -2.09375 C 14.40625 -2.570312 14.648438 -3.082031 14.796875 -3.625 C 14.953125 -4.175781 15.097656 -5.015625 15.234375 -6.140625 L 15.828125 -6.140625 C 15.828125 -3.203125 15.859375 -1.15625 15.921875 0 L 15.34375 0 C 15.289062 -0.539062 15.21875 -0.925781 15.125 -1.15625 C 15.03125 -1.394531 14.894531 -1.515625 14.71875 -1.515625 C 14.582031 -1.515625 14.40625 -1.441406 14.1875 -1.296875 C 13.414062 -0.753906 12.679688 -0.34375 11.984375 -0.0625 C 11.285156 0.21875 10.441406 0.359375 9.453125 0.359375 C 7.835938 0.359375 6.421875 -0.00390625 5.203125 -0.734375 C 3.984375 -1.472656 3.035156 -2.535156 2.359375 -3.921875 C 1.691406 -5.304688 1.359375 -6.960938 1.359375 -8.890625 C 1.359375 -10.765625 1.703125 -12.425781 2.390625 -13.875 C 3.078125 -15.320312 4.035156 -16.445312 5.265625 -17.25 C 6.503906 -18.050781 7.910156 -18.453125 9.484375 -18.453125 Z M 9.484375 -18.453125 "/></g></g></g><g fill="#846d62" fill-opacity="1"><g transform="translate(124.791789, 118.488439)"><g><path d="M 5.515625 -7.3125 L 5.515625 -2.703125 C 5.515625 -2.054688 5.582031 -1.585938 5.71875 -1.296875 C 5.863281 -1.015625 6.101562 -0.820312 6.4375 -0.71875 C 6.78125 -0.613281 7.335938 -0.546875 8.109375 -0.515625 L 8.109375 0 C 7.222656 -0.0507812 5.96875 -0.078125 4.34375 -0.078125 C 2.875 -0.078125 1.785156 -0.0507812 1.078125 0 L 1.078125 -0.515625 C 1.691406 -0.546875 2.140625 -0.613281 2.421875 -0.71875 C 2.703125 -0.820312 2.890625 -1.015625 2.984375 -1.296875 C 3.085938 -1.585938 3.140625 -2.054688 3.140625 -2.703125 L 3.140625 -15.390625 C 3.140625 -16.035156 3.085938 -16.503906 2.984375 -16.796875 C 2.890625 -17.085938 2.703125 -17.28125 2.421875 -17.375 C 2.140625 -17.476562 1.691406 -17.550781 1.078125 -17.59375 L 1.078125 -18.09375 C 1.785156 -18.039062 2.820312 -18.015625 4.1875 -18.015625 L 6.953125 -18.046875 C 7.273438 -18.066406 7.640625 -18.078125 8.046875 -18.078125 C 10.046875 -18.078125 11.570312 -17.617188 12.625 -16.703125 C 13.6875 -15.796875 14.21875 -14.570312 14.21875 -13.03125 C 14.21875 -12.09375 14.003906 -11.191406 13.578125 -10.328125 C 13.160156 -9.472656 12.453125 -8.753906 11.453125 -8.171875 C 10.460938 -7.597656 9.140625 -7.3125 7.484375 -7.3125 Z M 7.40625 -17.59375 C 6.882812 -17.59375 6.488281 -17.53125 6.21875 -17.40625 C 5.957031 -17.289062 5.773438 -17.078125 5.671875 -16.765625 C 5.566406 -16.460938 5.515625 -16.003906 5.515625 -15.390625 L 5.515625 -7.828125 L 7.234375 -7.828125 C 8.898438 -7.828125 10.050781 -8.269531 10.6875 -9.15625 C 11.332031 -10.050781 11.65625 -11.25 11.65625 -12.75 C 11.65625 -14.40625 11.328125 -15.625 10.671875 -16.40625 C 10.015625 -17.195312 8.925781 -17.59375 7.40625 -17.59375 Z M 7.40625 -17.59375 "/></g></g></g><g fill="#846d62" fill-opacity="1"><g transform="translate(140.764444, 118.488439)"><g><path d="M 21.1875 -17.59375 C 20.570312 -17.550781 20.125 -17.476562 19.84375 -17.375 C 19.5625 -17.28125 19.367188 -17.085938 19.265625 -16.796875 C 19.171875 -16.503906 19.125 -16.035156 19.125 -15.390625 L 19.125 -2.703125 C 19.125 -2.054688 19.171875 -1.585938 19.265625 -1.296875 C 19.367188 -1.015625 19.5625 -0.820312 19.84375 -0.71875 C 20.125 -0.613281 20.570312 -0.546875 21.1875 -0.515625 L 21.1875 0 C 20.40625 -0.0507812 19.320312 -0.078125 17.9375 -0.078125 C 16.476562 -0.078125 15.390625 -0.0507812 14.671875 0 L 14.671875 -0.515625 C 15.285156 -0.546875 15.734375 -0.613281 16.015625 -0.71875 C 16.296875 -0.820312 16.488281 -1.015625 16.59375 -1.296875 C 16.695312 -1.585938 16.75 -2.054688 16.75 -2.703125 L 16.75 -16.40625 L 10.578125 0.125 L 10.171875 0.125 L 3.734375 -16.46875 L 3.734375 -2.96875 C 3.734375 -2.300781 3.785156 -1.804688 3.890625 -1.484375 C 4.003906 -1.160156 4.222656 -0.925781 4.546875 -0.78125 C 4.867188 -0.632812 5.375 -0.546875 6.0625 -0.515625 L 6.0625 0 C 5.445312 -0.0507812 4.578125 -0.078125 3.453125 -0.078125 C 2.429688 -0.078125 1.640625 -0.0507812 1.078125 0 L 1.078125 -0.515625 C 1.671875 -0.546875 2.113281 -0.632812 2.40625 -0.78125 C 2.695312 -0.925781 2.890625 -1.164062 2.984375 -1.5 C 3.085938 -1.832031 3.140625 -2.320312 3.140625 -2.96875 L 3.140625 -15.390625 C 3.140625 -16.035156 3.085938 -16.503906 2.984375 -16.796875 C 2.890625 -17.085938 2.703125 -17.28125 2.421875 -17.375 C 2.140625 -17.476562 1.691406 -17.550781 1.078125 -17.59375 L 1.078125 -18.09375 C 1.640625 -18.039062 2.429688 -18.015625 3.453125 -18.015625 C 4.335938 -18.015625 5.0625 -18.039062 5.625 -18.09375 L 11.25 -3.296875 L 16.75 -18.015625 L 17.9375 -18.015625 C 19.320312 -18.015625 20.40625 -18.039062 21.1875 -18.09375 Z M 21.1875 -17.59375 "/></g></g></g></svg>